<svg xmlns="http://www.w3.org/2000/svg" viewBox="0 0 500 500"><g id="freepik--background-complete--inject-702"><path d="M250.29,281.86A10.57,10.57,0,0,1,252,276a5.19,5.19,0,0,1,9.14,0,11.34,11.34,0,0,1,0,11.78,5.18,5.18,0,0,1-9.14,0A10.62,10.62,0,0,1,250.29,281.86Zm9.73,0a8.17,8.17,0,0,0-1.18-4.38,2.88,2.88,0,0,0-2.3-1.51,3,3,0,0,0-2.34,1.51,8.17,8.17,0,0,0-1.18,4.38,8.07,8.07,0,0,0,1.18,4.36,3,3,0,0,0,2.34,1.53,2.91,2.91,0,0,0,2.3-1.53A8.07,8.07,0,0,0,260,281.86Z" style="fill:#ebebeb"></path><path d="M272.79,274.59v14.54a1.38,1.38,0,0,1-1.38,1.36,1.34,1.34,0,0,1-1.36-1.36V277l-1,.56a1.2,1.2,0,0,1-.69.2,1.29,1.29,0,0,1-1.15-.69,1.31,1.31,0,0,1,.44-1.85l3-1.79s.07,0,.1-.05.07-.05.12-.08l.15,0s.07,0,.1,0a.5.5,0,0,1,.17,0h.27a.2.2,0,0,0,.1,0,.33.33,0,0,1,.15.05.14.14,0,0,1,.1,0c.07.05.1.07.15.07a.17.17,0,0,0,.09.07s.08,0,.1.08a.24.24,0,0,1,.1.1.2.2,0,0,1,.07.1l.1.09,0,0s0,.05,0,.08.05.07.05.12,0,.1,0,.12a1.3,1.3,0,0,0,0,.13.21.21,0,0,0,.05.17Z" style="fill:#ebebeb"></path><path d="M281,274.59v14.54a1.37,1.37,0,0,1-1.38,1.36,1.34,1.34,0,0,1-1.36-1.36V277l-1,.56a1.22,1.22,0,0,1-.69.2,1.38,1.38,0,0,1-.71-2.54l3-1.79s.07,0,.09-.05.08-.05.13-.08l.15,0s.07,0,.09,0a.55.55,0,0,1,.18,0h.27s.07,0,.1,0,.09,0,.14.05.08,0,.1,0,.1.07.15.07a.26.26,0,0,0,.1.07s.07,0,.1.08.07.07.1.1a.29.29,0,0,1,.07.1l.1.09,0,0s0,.05,0,.08.05.07.05.12,0,.1.05.12,0,.1,0,.13a.21.21,0,0,0,.05.17Z" style="fill:#ebebeb"></path><path d="M289.3,274.59v14.54a1.38,1.38,0,0,1-1.38,1.36,1.34,1.34,0,0,1-1.36-1.36V277l-1,.56a1.25,1.25,0,0,1-.7.2,1.29,1.29,0,0,1-1.15-.69,1.31,1.31,0,0,1,.44-1.85l3-1.79s.07,0,.1-.05.07-.05.12-.08l.15,0a.13.13,0,0,1,.1,0,.5.5,0,0,1,.17,0h.27a.2.2,0,0,0,.1,0,.3.3,0,0,1,.15.05.14.14,0,0,1,.1,0c.07.05.1.07.15.07a.17.17,0,0,0,.09.07s.08,0,.1.08a.24.24,0,0,1,.1.1.29.29,0,0,1,.08.1l.09.09,0,0s0,.05,0,.08.05.07.05.12,0,.1.05.12a1.3,1.3,0,0,0,0,.13.21.21,0,0,0,.05.17Z" style="fill:#ebebeb"></path><path d="M292.43,281.86A10.57,10.57,0,0,1,294.1,276a5.19,5.19,0,0,1,9.14,0,11.34,11.34,0,0,1,0,11.78,5.18,5.18,0,0,1-9.14,0A10.62,10.62,0,0,1,292.43,281.86Zm9.73,0a8.17,8.17,0,0,0-1.18-4.38,2.88,2.88,0,0,0-2.3-1.51,3,3,0,0,0-2.34,1.51,8.17,8.17,0,0,0-1.18,4.38,8.07,8.07,0,0,0,1.18,4.36,3,3,0,0,0,2.34,1.53,2.91,2.91,0,0,0,2.3-1.53A8.07,8.07,0,0,0,302.16,281.86Z" style="fill:#ebebeb"></path><path d="M309.92,281.86A10.58,10.58,0,0,1,311.6,276a5.19,5.19,0,0,1,9.14,0,11.34,11.34,0,0,1,0,11.78,5.18,5.18,0,0,1-9.14,0A10.62,10.62,0,0,1,309.92,281.86Zm9.74,0a8.17,8.17,0,0,0-1.19-4.38,2.85,2.85,0,0,0-2.29-1.51,3,3,0,0,0-2.34,1.51,8.17,8.17,0,0,0-1.18,4.38,8.07,8.07,0,0,0,1.18,4.36,3,3,0,0,0,2.34,1.53,2.88,2.88,0,0,0,2.29-1.53A8.07,8.07,0,0,0,319.66,281.86Z" style="fill:#ebebeb"></path><path d="M327.42,281.86A10.5,10.5,0,0,1,329.1,276a5.19,5.19,0,0,1,9.14,0,11.34,11.34,0,0,1,0,11.78,5.18,5.18,0,0,1-9.14,0A10.54,10.54,0,0,1,327.42,281.86Zm9.73,0a8.17,8.17,0,0,0-1.18-4.38,2.87,2.87,0,0,0-2.29-1.51,3,3,0,0,0-2.34,1.51,8.17,8.17,0,0,0-1.19,4.38,8.07,8.07,0,0,0,1.19,4.36,3,3,0,0,0,2.34,1.53,2.9,2.9,0,0,0,2.29-1.53A8.07,8.07,0,0,0,337.15,281.86Z" style="fill:#ebebeb"></path><path d="M374.37,274.59v14.54a1.37,1.37,0,0,1-1.38,1.36,1.33,1.33,0,0,1-1.35-1.36V277l-1,.56a1.22,1.22,0,0,1-.69.2,1.38,1.38,0,0,1-.71-2.54l3-1.79s.07,0,.09-.05.08-.05.13-.08l.15,0s.07,0,.09,0a.55.55,0,0,1,.18,0h.27s.07,0,.1,0,.09,0,.14.05.08,0,.1,0,.1.07.15.07a.2.2,0,0,0,.1.07s.07,0,.1.08.07.07.1.1a.29.29,0,0,1,.07.1l.1.09,0,0s0,.05,0,.08.05.07.05.12,0,.1.05.12,0,.1,0,.13a.21.21,0,0,0,.05.17Z" style="fill:#ebebeb"></path><path d="M382.63,274.59v14.54a1.38,1.38,0,0,1-1.38,1.36,1.34,1.34,0,0,1-1.36-1.36V277l-1,.56a1.19,1.19,0,0,1-.68.2,1.3,1.3,0,0,1-1.16-.69,1.31,1.31,0,0,1,.44-1.85l3-1.79s.07,0,.1-.05.07-.05.12-.08l.15,0a.14.14,0,0,1,.1,0,.5.5,0,0,1,.17,0h.27a.2.2,0,0,0,.1,0,.3.3,0,0,1,.15.05.14.14,0,0,1,.1,0c.07.05.1.07.15.07a.17.17,0,0,0,.09.07s.08,0,.1.08a.24.24,0,0,1,.1.1.29.29,0,0,1,.08.1l.09.09,0,0s0,.05,0,.08.05.07.05.12,0,.1.05.12a1.3,1.3,0,0,0,0,.13.21.21,0,0,0,.05.17Z" style="fill:#ebebeb"></path><path d="M390.88,274.59v14.54a1.37,1.37,0,0,1-1.38,1.36,1.33,1.33,0,0,1-1.35-1.36V277l-1,.56a1.22,1.22,0,0,1-.69.2,1.38,1.38,0,0,1-.71-2.54l3-1.79s.07,0,.09-.05.08-.05.13-.08l.15,0s.07,0,.09,0a.55.55,0,0,1,.18,0h.27s.07,0,.1,0a.26.26,0,0,1,.14.05s.08,0,.1,0,.1.07.15.07a.26.26,0,0,0,.1.07s.07,0,.1.08.07.07.1.1a.29.29,0,0,1,.07.1l.1.09,0,0s0,.05,0,.08.05.07.05.12,0,.1.05.12,0,.1,0,.13a.21.21,0,0,0,.05.17Z" style="fill:#ebebeb"></path><path d="M394,281.86a10.58,10.58,0,0,1,1.68-5.89,5.19,5.19,0,0,1,9.14,0,11.34,11.34,0,0,1,0,11.78,5.18,5.18,0,0,1-9.14,0A10.62,10.62,0,0,1,394,281.86Zm9.73,0a8.17,8.17,0,0,0-1.18-4.38,2.87,2.87,0,0,0-2.29-1.51,3,3,0,0,0-2.34,1.51,8.17,8.17,0,0,0-1.18,4.38,8.07,8.07,0,0,0,1.18,4.36,3,3,0,0,0,2.34,1.53,2.9,2.9,0,0,0,2.29-1.53A8.07,8.07,0,0,0,403.74,281.86Z" style="fill:#ebebeb"></path><path d="M411.51,281.86a10.57,10.57,0,0,1,1.67-5.89,5.2,5.2,0,0,1,9.15,0,11.34,11.34,0,0,1,0,11.78,5.19,5.19,0,0,1-9.15,0A10.62,10.62,0,0,1,411.51,281.86Zm9.73,0a8.17,8.17,0,0,0-1.18-4.38,2.88,2.88,0,0,0-2.29-1.51,3,3,0,0,0-2.34,1.51,8.17,8.17,0,0,0-1.19,4.38,8.07,8.07,0,0,0,1.19,4.36,3,3,0,0,0,2.34,1.53,2.91,2.91,0,0,0,2.29-1.53A8.07,8.07,0,0,0,421.24,281.86Z" style="fill:#ebebeb"></path><path d="M429,281.86a10.57,10.57,0,0,1,1.67-5.89,5.19,5.19,0,0,1,9.14,0,11.34,11.34,0,0,1,0,11.78,5.18,5.18,0,0,1-9.14,0A10.62,10.62,0,0,1,429,281.86Zm9.73,0a8.17,8.17,0,0,0-1.18-4.38,2.88,2.88,0,0,0-2.3-1.51,3,3,0,0,0-2.34,1.51,8.17,8.17,0,0,0-1.18,4.38,8.07,8.07,0,0,0,1.18,4.36,3,3,0,0,0,2.34,1.53,2.91,2.91,0,0,0,2.3-1.53A8.07,8.07,0,0,0,438.74,281.86Z" style="fill:#ebebeb"></path><path d="M429,311.43a10.51,10.51,0,0,1,1.67-5.88,5.18,5.18,0,0,1,9.14,0,11.32,11.32,0,0,1,0,11.77,5.18,5.18,0,0,1-9.14,0A10.57,10.57,0,0,1,429,311.43Zm9.73,0a8.17,8.17,0,0,0-1.18-4.38,2.84,2.84,0,0,0-2.3-1.5,2.94,2.94,0,0,0-2.34,1.5,8.7,8.7,0,0,0,0,8.75,3,3,0,0,0,2.34,1.52,2.9,2.9,0,0,0,2.3-1.52A8.13,8.13,0,0,0,438.74,311.43Z" style="fill:#ebebeb"></path><path d="M429,341a10.52,10.52,0,0,1,1.67-5.89,5.18,5.18,0,0,1,9.14,0,11.34,11.34,0,0,1,0,11.78,5.19,5.19,0,0,1-9.14,0A10.62,10.62,0,0,1,429,341Zm9.73,0a8.18,8.18,0,0,0-1.18-4.39,2.87,2.87,0,0,0-2.3-1.5,3,3,0,0,0-2.34,1.5,8.18,8.18,0,0,0-1.18,4.39,8.09,8.09,0,0,0,1.18,4.36,3,3,0,0,0,2.34,1.53,2.91,2.91,0,0,0,2.3-1.53A8.09,8.09,0,0,0,438.74,341Z" style="fill:#ebebeb"></path><path d="M411.51,341a10.52,10.52,0,0,1,1.67-5.89,5.19,5.19,0,0,1,9.15,0,11.34,11.34,0,0,1,0,11.78,5.2,5.2,0,0,1-9.15,0A10.62,10.62,0,0,1,411.51,341Zm9.73,0a8.18,8.18,0,0,0-1.18-4.39,2.87,2.87,0,0,0-2.29-1.5,3,3,0,0,0-2.34,1.5,8.18,8.18,0,0,0-1.19,4.39,8.09,8.09,0,0,0,1.19,4.36,3,3,0,0,0,2.34,1.53,2.91,2.91,0,0,0,2.29-1.53A8.09,8.09,0,0,0,421.24,341Z" style="fill:#ebebeb"></path><path d="M349.92,274.59v14.54a1.37,1.37,0,0,1-1.38,1.36,1.34,1.34,0,0,1-1.36-1.36V277l-1,.56a1.22,1.22,0,0,1-.69.2,1.38,1.38,0,0,1-.72-2.54l3-1.79s.08,0,.1-.05.08-.05.13-.08l.14,0a.14.14,0,0,1,.1,0,.55.55,0,0,1,.18,0h.27s.07,0,.1,0,.09,0,.14.05.08,0,.1,0,.1.07.15.07a.2.2,0,0,0,.1.07s.07,0,.1.08.07.07.1.1l.07.1.1.09,0,0s0,.05,0,.08.05.07.05.12,0,.1.05.12,0,.1,0,.13a.21.21,0,0,0,.05.17Z" style="fill:#ebebeb"></path><path d="M353.76,281.86a10.57,10.57,0,0,1,1.67-5.89,5.19,5.19,0,0,1,9.14,0,11.34,11.34,0,0,1,0,11.78,5.18,5.18,0,0,1-9.14,0A10.62,10.62,0,0,1,353.76,281.86Zm9.73,0a8.17,8.17,0,0,0-1.18-4.38A2.88,2.88,0,0,0,360,276a3,3,0,0,0-2.34,1.51,8.17,8.17,0,0,0-1.18,4.38,8.07,8.07,0,0,0,1.18,4.36,3,3,0,0,0,2.34,1.53,2.91,2.91,0,0,0,2.3-1.53A8.07,8.07,0,0,0,363.49,281.86Z" style="fill:#ebebeb"></path><path d="M255.47,304.17V318.7a1.37,1.37,0,0,1-1.38,1.36,1.33,1.33,0,0,1-1.35-1.36V306.58l-1,.57a1.21,1.21,0,0,1-.69.19,1.37,1.37,0,0,1-.71-2.53l3-1.8s.07,0,.1-.05.07,0,.12-.08l.15,0s.07,0,.1,0a.34.34,0,0,1,.17,0h.27s.07,0,.1,0a.33.33,0,0,1,.15,0s.07,0,.09,0,.1.07.15.07l.1.08.1.07a.47.47,0,0,1,.1.1.29.29,0,0,1,.07.1l.1.1,0,.05s0,0,0,.07,0,.07,0,.12,0,.1.05.13a1,1,0,0,0,0,.12.21.21,0,0,0,.05.17Z" style="fill:#ebebeb"></path><path d="M258.6,311.43a10.52,10.52,0,0,1,1.68-5.88,5.18,5.18,0,0,1,9.14,0,11.32,11.32,0,0,1,0,11.77,5.18,5.18,0,0,1-9.14,0A10.58,10.58,0,0,1,258.6,311.43Zm9.74,0a8.17,8.17,0,0,0-1.19-4.38,2.83,2.83,0,0,0-2.29-1.5,2.94,2.94,0,0,0-2.34,1.5,8.7,8.7,0,0,0,0,8.75,3,3,0,0,0,2.34,1.52,2.88,2.88,0,0,0,2.29-1.52A8.13,8.13,0,0,0,268.34,311.43Z" style="fill:#ebebeb"></path><path d="M281.1,304.17V318.7a1.37,1.37,0,0,1-1.38,1.36,1.33,1.33,0,0,1-1.35-1.36V306.58l-1,.57a1.21,1.21,0,0,1-.69.19,1.37,1.37,0,0,1-.71-2.53l3-1.8s.07,0,.1-.05.07,0,.12-.08l.15,0s.07,0,.1,0a.32.32,0,0,1,.17,0h.27s.07,0,.1,0a.33.33,0,0,1,.15,0s.07,0,.09,0,.1.07.15.07l.1.08.1.07a.47.47,0,0,1,.1.1.29.29,0,0,1,.07.1l.1.1,0,.05s0,0,0,.07.05.07.05.12,0,.1,0,.13a1,1,0,0,0,0,.12.21.21,0,0,0,.05.17Z" style="fill:#ebebeb"></path><path d="M284.23,311.43a10.52,10.52,0,0,1,1.68-5.88,5.18,5.18,0,0,1,9.14,0,11.32,11.32,0,0,1,0,11.77,5.18,5.18,0,0,1-9.14,0A10.58,10.58,0,0,1,284.23,311.43Zm9.73,0a8.17,8.17,0,0,0-1.18-4.38,2.83,2.83,0,0,0-2.29-1.5,2.94,2.94,0,0,0-2.34,1.5,8.7,8.7,0,0,0,0,8.75,3,3,0,0,0,2.34,1.52,2.88,2.88,0,0,0,2.29-1.52A8.13,8.13,0,0,0,294,311.43Z" style="fill:#ebebeb"></path><path d="M301.73,311.43a10.51,10.51,0,0,1,1.67-5.88,5.19,5.19,0,0,1,9.15,0,11.32,11.32,0,0,1,0,11.77,5.19,5.19,0,0,1-9.15,0A10.57,10.57,0,0,1,301.73,311.43Zm9.73,0a8.17,8.17,0,0,0-1.18-4.38,2.84,2.84,0,0,0-2.29-1.5,2.93,2.93,0,0,0-2.34,1.5,8.64,8.64,0,0,0,0,8.75,3,3,0,0,0,2.34,1.52,2.9,2.9,0,0,0,2.29-1.52A8.13,8.13,0,0,0,311.46,311.43Z" style="fill:#ebebeb"></path><path d="M319.23,311.43a10.51,10.51,0,0,1,1.67-5.88,5.18,5.18,0,0,1,9.14,0,11.32,11.32,0,0,1,0,11.77,5.18,5.18,0,0,1-9.14,0A10.57,10.57,0,0,1,319.23,311.43Zm9.73,0a8.17,8.17,0,0,0-1.18-4.38,2.84,2.84,0,0,0-2.3-1.5,2.94,2.94,0,0,0-2.34,1.5,8.7,8.7,0,0,0,0,8.75,3,3,0,0,0,2.34,1.52,2.9,2.9,0,0,0,2.3-1.52A8.13,8.13,0,0,0,329,311.43Z" style="fill:#ebebeb"></path><path d="M375.81,248.39v14.54a1.37,1.37,0,0,1-1.38,1.35,1.33,1.33,0,0,1-1.35-1.35V250.81l-1,.56a1.22,1.22,0,0,1-.69.2,1.33,1.33,0,0,1-1.16-.69,1.31,1.31,0,0,1,.45-1.85l3-1.8s.07,0,.1,0,.07-.05.12-.07l.15,0s.07,0,.1,0a.47.47,0,0,1,.17,0h.27s.07,0,.1,0a.33.33,0,0,1,.15.05.15.15,0,0,1,.09,0c.08.05.1.08.15.08a.43.43,0,0,0,.1.07s.07.05.1.08.07.07.1.09a.43.43,0,0,1,.07.1l.1.1,0,0s0,.05,0,.07.05.08.05.13,0,.1.05.12a1,1,0,0,0,0,.12.22.22,0,0,0,.05.18Z" style="fill:#ebebeb"></path><path d="M381.64,255.66a10.47,10.47,0,0,1,1.68-5.89,5.19,5.19,0,0,1,9.14,0,11.34,11.34,0,0,1,0,11.78,5.19,5.19,0,0,1-9.14,0A10.54,10.54,0,0,1,381.64,255.66Zm9.73,0a8.2,8.2,0,0,0-1.18-4.39,2.89,2.89,0,0,0-2.29-1.5,3,3,0,0,0-2.34,1.5,8.2,8.2,0,0,0-1.19,4.39,8.07,8.07,0,0,0,1.19,4.36,3,3,0,0,0,2.34,1.53,2.91,2.91,0,0,0,2.29-1.53A8.07,8.07,0,0,0,391.37,255.66Z" style="fill:#ebebeb"></path><path d="M399.14,255.66a10.55,10.55,0,0,1,1.67-5.89,5.19,5.19,0,0,1,9.14,0,11.34,11.34,0,0,1,0,11.78,5.19,5.19,0,0,1-9.14,0A10.62,10.62,0,0,1,399.14,255.66Zm9.73,0a8.2,8.2,0,0,0-1.18-4.39,2.89,2.89,0,0,0-2.29-1.5,3,3,0,0,0-2.35,1.5,8.2,8.2,0,0,0-1.18,4.39,8.07,8.07,0,0,0,1.18,4.36,3,3,0,0,0,2.35,1.53,2.91,2.91,0,0,0,2.29-1.53A8.07,8.07,0,0,0,408.87,255.66Z" style="fill:#ebebeb"></path><path d="M341.73,304.17V318.7a1.38,1.38,0,0,1-1.38,1.36A1.34,1.34,0,0,1,339,318.7V306.58l-1,.57a1.19,1.19,0,0,1-.69.19,1.38,1.38,0,0,1-.71-2.53l3-1.8s.07,0,.1-.05.07,0,.12-.08l.15,0a.18.18,0,0,1,.1,0,.34.34,0,0,1,.17,0h.27a.14.14,0,0,0,.1,0,.3.3,0,0,1,.15,0,.14.14,0,0,1,.1,0c.07,0,.1.07.15.07a.24.24,0,0,0,.09.08l.1.07a.31.31,0,0,1,.1.1.29.29,0,0,1,.08.1l.09.1,0,.05s0,0,0,.07.05.07.05.12,0,.1,0,.13a.68.68,0,0,0,0,.12.21.21,0,0,0,.05.17Z" style="fill:#ebebeb"></path><path d="M344.86,311.43a10.51,10.51,0,0,1,1.67-5.88,5.18,5.18,0,0,1,9.14,0,11.32,11.32,0,0,1,0,11.77,5.18,5.18,0,0,1-9.14,0A10.57,10.57,0,0,1,344.86,311.43Zm9.73,0a8.17,8.17,0,0,0-1.18-4.38,2.84,2.84,0,0,0-2.3-1.5,2.94,2.94,0,0,0-2.34,1.5,8.7,8.7,0,0,0,0,8.75,3,3,0,0,0,2.34,1.52,2.9,2.9,0,0,0,2.3-1.52A8.13,8.13,0,0,0,354.59,311.43Z" style="fill:#ebebeb"></path><path d="M367.35,304.17V318.7a1.37,1.37,0,0,1-1.37,1.36,1.34,1.34,0,0,1-1.36-1.36V306.58l-1,.57a1.19,1.19,0,0,1-.69.19,1.38,1.38,0,0,1-.71-2.53l3-1.8s.07,0,.1-.05.07,0,.12-.08l.15,0s.07,0,.1,0a.34.34,0,0,1,.17,0h.27a.14.14,0,0,0,.1,0,.33.33,0,0,1,.15,0,.14.14,0,0,1,.1,0c.07,0,.1.07.14.07l.1.08.1.07a.31.31,0,0,1,.1.1.2.2,0,0,1,.07.1.47.47,0,0,1,.1.1l0,.05s0,0,0,.07.05.07.05.12,0,.1,0,.13a.68.68,0,0,0,0,.12.24.24,0,0,0,0,.17Z" style="fill:#ebebeb"></path><path d="M250.35,341a10.55,10.55,0,0,1,1.67-5.89,5.18,5.18,0,0,1,9.14,0,11.34,11.34,0,0,1,0,11.78,5.19,5.19,0,0,1-9.14,0A10.62,10.62,0,0,1,250.35,341Zm9.73,0a8.18,8.18,0,0,0-1.18-4.39,2.87,2.87,0,0,0-2.29-1.5,3,3,0,0,0-2.35,1.5,8.18,8.18,0,0,0-1.18,4.39,8.09,8.09,0,0,0,1.18,4.36,3,3,0,0,0,2.35,1.53,2.91,2.91,0,0,0,2.29-1.53A8.09,8.09,0,0,0,260.08,341Z" style="fill:#ebebeb"></path><path d="M267.84,341a10.63,10.63,0,0,1,1.68-5.89,5.18,5.18,0,0,1,9.14,0,11.34,11.34,0,0,1,0,11.78,5.19,5.19,0,0,1-9.14,0A10.71,10.71,0,0,1,267.84,341Zm9.74,0a8.18,8.18,0,0,0-1.19-4.39,2.84,2.84,0,0,0-2.29-1.5,3,3,0,0,0-2.34,1.5,8.18,8.18,0,0,0-1.18,4.39,8.09,8.09,0,0,0,1.18,4.36,3,3,0,0,0,2.34,1.53,2.88,2.88,0,0,0,2.29-1.53A8.09,8.09,0,0,0,277.58,341Z" style="fill:#ebebeb"></path><path d="M290.34,333.74v14.54a1.37,1.37,0,0,1-1.38,1.35,1.33,1.33,0,0,1-1.35-1.35V336.15l-1,.57a1.22,1.22,0,0,1-.69.2,1.38,1.38,0,0,1-.71-2.54l3-1.8s.07,0,.1-.05.07,0,.12-.07l.15,0s.07,0,.1,0a.34.34,0,0,1,.17,0h.27s.07,0,.1,0a.25.25,0,0,1,.15,0,.2.2,0,0,1,.1,0c.07,0,.09.08.14.08a.43.43,0,0,0,.1.07l.1.07s.07.08.1.1a.43.43,0,0,1,.07.1l.1.1,0,.05s0,.05,0,.07a.24.24,0,0,1,.05.13c0,.05,0,.09,0,.12a1,1,0,0,0,0,.12c0,.08,0,.13,0,.17Z" style="fill:#ebebeb"></path><path d="M293.47,341a10.55,10.55,0,0,1,1.68-5.89,5.18,5.18,0,0,1,9.14,0,11.34,11.34,0,0,1,0,11.78,5.19,5.19,0,0,1-9.14,0A10.62,10.62,0,0,1,293.47,341Zm9.74,0a8.18,8.18,0,0,0-1.19-4.39,2.84,2.84,0,0,0-2.29-1.5,3,3,0,0,0-2.34,1.5,8.18,8.18,0,0,0-1.18,4.39,8.09,8.09,0,0,0,1.18,4.36,3,3,0,0,0,2.34,1.53,2.88,2.88,0,0,0,2.29-1.53A8.09,8.09,0,0,0,303.21,341Z" style="fill:#ebebeb"></path><path d="M311,341a10.47,10.47,0,0,1,1.68-5.89,5.18,5.18,0,0,1,9.14,0,11.34,11.34,0,0,1,0,11.78,5.19,5.19,0,0,1-9.14,0A10.54,10.54,0,0,1,311,341Zm9.73,0a8.18,8.18,0,0,0-1.18-4.39,2.85,2.85,0,0,0-2.29-1.5,3,3,0,0,0-2.34,1.5A8.18,8.18,0,0,0,313.7,341a8.09,8.09,0,0,0,1.19,4.36,3,3,0,0,0,2.34,1.53,2.9,2.9,0,0,0,2.29-1.53A8.09,8.09,0,0,0,320.7,341Z" style="fill:#ebebeb"></path><path d="M333.47,333.74v14.54a1.37,1.37,0,0,1-1.38,1.35,1.34,1.34,0,0,1-1.36-1.35V336.15l-1,.57a1.22,1.22,0,0,1-.69.2,1.33,1.33,0,0,1-1.16-.69,1.31,1.31,0,0,1,.44-1.85l3-1.8s.08,0,.1-.05.08,0,.13-.07.1,0,.14,0a.2.2,0,0,1,.1,0,.38.38,0,0,1,.18,0h.27s.07,0,.1,0a.22.22,0,0,1,.14,0s.08,0,.1,0,.1.08.15.08a.29.29,0,0,0,.1.07l.1.07s.07.08.1.1l.07.1.1.1,0,.05s0,.05,0,.07.05.08.05.13,0,.09,0,.12a1,1,0,0,0,0,.12c0,.08,0,.13.05.17Z" style="fill:#ebebeb"></path><path d="M341.73,333.74v14.54a1.38,1.38,0,0,1-1.38,1.35,1.33,1.33,0,0,1-1.36-1.35V336.15l-1,.57a1.2,1.2,0,0,1-.69.2,1.38,1.38,0,0,1-.71-2.54l3-1.8s.07,0,.1-.05.07,0,.12-.07l.15,0a.18.18,0,0,1,.1,0,.34.34,0,0,1,.17,0h.27a.14.14,0,0,0,.1,0,.23.23,0,0,1,.15,0,.2.2,0,0,1,.1,0c.07,0,.1.08.15.08a.23.23,0,0,0,.09.07l.1.07a.46.46,0,0,1,.1.1.44.44,0,0,1,.08.1l.09.1,0,.05s0,.05,0,.07a.24.24,0,0,1,.05.13c0,.05,0,.09,0,.12a.68.68,0,0,0,0,.12c0,.08,0,.13.05.17Z" style="fill:#ebebeb"></path><path d="M376.34,304.17V318.7a1.37,1.37,0,0,1-1.38,1.36,1.34,1.34,0,0,1-1.36-1.36V306.58l-1,.57a1.31,1.31,0,0,1-.69.19,1.38,1.38,0,0,1-.72-2.53l3-1.8s.08,0,.1-.05.07,0,.12-.08l.15,0a.2.2,0,0,1,.1,0,.34.34,0,0,1,.17,0h.27a.14.14,0,0,0,.1,0,.3.3,0,0,1,.15,0s.08,0,.1,0,.1.07.15.07a.29.29,0,0,0,.1.08l.09.07a.31.31,0,0,1,.1.1.29.29,0,0,1,.08.1l.1.1,0,.05s0,0,0,.07,0,.07,0,.12,0,.1.05.13,0,.09,0,.12a.21.21,0,0,0,0,.17Z" style="fill:#ebebeb"></path><path d="M379.47,311.43a10.51,10.51,0,0,1,1.67-5.88,5.18,5.18,0,0,1,9.14,0,11.32,11.32,0,0,1,0,11.77,5.18,5.18,0,0,1-9.14,0A10.57,10.57,0,0,1,379.47,311.43Zm9.73,0a8.17,8.17,0,0,0-1.18-4.38,2.84,2.84,0,0,0-2.29-1.5,2.94,2.94,0,0,0-2.35,1.5,8.7,8.7,0,0,0,0,8.75,3,3,0,0,0,2.35,1.52A2.9,2.9,0,0,0,388,315.8,8.13,8.13,0,0,0,389.2,311.43Z" style="fill:#ebebeb"></path><path d="M397,311.43a10.6,10.6,0,0,1,1.68-5.88,5.18,5.18,0,0,1,9.14,0,11.32,11.32,0,0,1,0,11.77,5.18,5.18,0,0,1-9.14,0A10.66,10.66,0,0,1,397,311.43Zm9.74,0a8.17,8.17,0,0,0-1.19-4.38,2.82,2.82,0,0,0-2.29-1.5,2.94,2.94,0,0,0-2.34,1.5,8.7,8.7,0,0,0,0,8.75,3,3,0,0,0,2.34,1.52,2.87,2.87,0,0,0,2.29-1.52A8.13,8.13,0,0,0,406.7,311.43Z" style="fill:#ebebeb"></path><path d="M419.46,304.17V318.7a1.37,1.37,0,0,1-1.38,1.36,1.33,1.33,0,0,1-1.35-1.36V306.58l-1,.57a1.29,1.29,0,0,1-.69.19,1.37,1.37,0,0,1-.71-2.53l3-1.8s.07,0,.1-.05.07,0,.12-.08l.15,0s.07,0,.1,0a.34.34,0,0,1,.17,0h.27a.13.13,0,0,0,.1,0,.33.33,0,0,1,.15,0,.14.14,0,0,1,.1,0c.07,0,.09.07.14.07l.1.08.1.07a.47.47,0,0,1,.1.1.29.29,0,0,1,.07.1.47.47,0,0,1,.1.1l0,.05s0,0,0,.07,0,.07,0,.12,0,.1.05.13,0,.09,0,.12a.21.21,0,0,0,0,.17Z" style="fill:#ebebeb"></path><path d="M344.86,341a10.55,10.55,0,0,1,1.67-5.89,5.18,5.18,0,0,1,9.14,0,11.34,11.34,0,0,1,0,11.78,5.19,5.19,0,0,1-9.14,0A10.62,10.62,0,0,1,344.86,341Zm9.73,0a8.18,8.18,0,0,0-1.18-4.39,2.87,2.87,0,0,0-2.3-1.5,3,3,0,0,0-2.34,1.5,8.18,8.18,0,0,0-1.18,4.39,8.09,8.09,0,0,0,1.18,4.36,3,3,0,0,0,2.34,1.53,2.91,2.91,0,0,0,2.3-1.53A8.09,8.09,0,0,0,354.59,341Z" style="fill:#ebebeb"></path><path d="M367.35,333.74v14.54a1.37,1.37,0,0,1-1.37,1.35,1.33,1.33,0,0,1-1.36-1.35V336.15l-1,.57a1.2,1.2,0,0,1-.69.2,1.38,1.38,0,0,1-.71-2.54l3-1.8s.07,0,.1-.05.07,0,.12-.07l.15,0s.07,0,.1,0a.34.34,0,0,1,.17,0h.27a.14.14,0,0,0,.1,0,.25.25,0,0,1,.15,0,.2.2,0,0,1,.1,0c.07,0,.1.08.14.08a.43.43,0,0,0,.1.07l.1.07a.46.46,0,0,1,.1.1.26.26,0,0,1,.07.1l.1.1,0,.05s0,.05,0,.07a.24.24,0,0,1,.05.13c0,.05,0,.09,0,.12a.68.68,0,0,0,0,.12c0,.08,0,.13,0,.17Z" style="fill:#ebebeb"></path><path d="M250.35,255.66a10.55,10.55,0,0,1,1.67-5.89,5.19,5.19,0,0,1,9.14,0,11.34,11.34,0,0,1,0,11.78,5.19,5.19,0,0,1-9.14,0A10.62,10.62,0,0,1,250.35,255.66Zm9.73,0a8.2,8.2,0,0,0-1.18-4.39,2.89,2.89,0,0,0-2.29-1.5,3,3,0,0,0-2.35,1.5,8.2,8.2,0,0,0-1.18,4.39,8.07,8.07,0,0,0,1.18,4.36,3,3,0,0,0,2.35,1.53A2.91,2.91,0,0,0,258.9,260,8.07,8.07,0,0,0,260.08,255.66Z" style="fill:#ebebeb"></path><path d="M267.84,255.66a10.63,10.63,0,0,1,1.68-5.89,5.19,5.19,0,0,1,9.14,0,11.34,11.34,0,0,1,0,11.78,5.19,5.19,0,0,1-9.14,0A10.71,10.71,0,0,1,267.84,255.66Zm9.74,0a8.2,8.2,0,0,0-1.19-4.39,2.86,2.86,0,0,0-2.29-1.5,3,3,0,0,0-2.34,1.5,8.2,8.2,0,0,0-1.18,4.39,8.07,8.07,0,0,0,1.18,4.36,3,3,0,0,0,2.34,1.53,2.88,2.88,0,0,0,2.29-1.53A8.07,8.07,0,0,0,277.58,255.66Z" style="fill:#ebebeb"></path><path d="M290.34,248.39v14.54a1.37,1.37,0,0,1-1.38,1.35,1.33,1.33,0,0,1-1.35-1.35V250.81l-1,.56a1.22,1.22,0,0,1-.69.2,1.38,1.38,0,0,1-.71-2.54l3-1.8s.07,0,.1,0,.07-.05.12-.07l.15,0s.07,0,.1,0a.5.5,0,0,1,.17,0h.27s.07,0,.1,0a.33.33,0,0,1,.15.05.2.2,0,0,1,.1,0c.07.05.09.08.14.08a.43.43,0,0,0,.1.07s.08.05.1.08.07.07.1.09a.43.43,0,0,1,.07.1l.1.1,0,0s0,.05,0,.07a.24.24,0,0,1,.05.13s0,.1,0,.12a1,1,0,0,0,0,.12.22.22,0,0,0,0,.18Z" style="fill:#ebebeb"></path><path d="M293.47,255.66a10.55,10.55,0,0,1,1.68-5.89,5.19,5.19,0,0,1,9.14,0,11.34,11.34,0,0,1,0,11.78,5.19,5.19,0,0,1-9.14,0A10.62,10.62,0,0,1,293.47,255.66Zm9.74,0a8.2,8.2,0,0,0-1.19-4.39,2.86,2.86,0,0,0-2.29-1.5,3,3,0,0,0-2.34,1.5,8.2,8.2,0,0,0-1.18,4.39,8.07,8.07,0,0,0,1.18,4.36,3,3,0,0,0,2.34,1.53A2.88,2.88,0,0,0,302,260,8.07,8.07,0,0,0,303.21,255.66Z" style="fill:#ebebeb"></path><path d="M311,255.66a10.47,10.47,0,0,1,1.68-5.89,5.19,5.19,0,0,1,9.14,0,11.34,11.34,0,0,1,0,11.78,5.19,5.19,0,0,1-9.14,0A10.54,10.54,0,0,1,311,255.66Zm9.73,0a8.2,8.2,0,0,0-1.18-4.39,2.88,2.88,0,0,0-2.29-1.5,3,3,0,0,0-2.34,1.5,8.2,8.2,0,0,0-1.19,4.39,8.07,8.07,0,0,0,1.19,4.36,3,3,0,0,0,2.34,1.53,2.9,2.9,0,0,0,2.29-1.53A8.07,8.07,0,0,0,320.7,255.66Z" style="fill:#ebebeb"></path><path d="M333.47,248.39v14.54a1.37,1.37,0,0,1-1.38,1.35,1.34,1.34,0,0,1-1.36-1.35V250.81l-1,.56a1.22,1.22,0,0,1-.69.2,1.33,1.33,0,0,1-1.16-.69,1.31,1.31,0,0,1,.44-1.85l3-1.8s.08,0,.1,0,.08-.05.13-.07l.14,0a.14.14,0,0,1,.1,0,.55.55,0,0,1,.18,0h.27s.07,0,.1,0,.09,0,.14.05.08,0,.1,0,.1.08.15.08a.29.29,0,0,0,.1.07s.07.05.1.08.07.07.1.09l.07.1.1.1,0,0s0,.05,0,.07.05.08.05.13,0,.1,0,.12a1,1,0,0,0,0,.12.22.22,0,0,0,.05.18Z" style="fill:#ebebeb"></path><path d="M341.73,248.39v14.54a1.38,1.38,0,0,1-1.38,1.35,1.33,1.33,0,0,1-1.36-1.35V250.81l-1,.56a1.2,1.2,0,0,1-.69.2,1.38,1.38,0,0,1-.71-2.54l3-1.8s.07,0,.1,0,.07-.05.12-.07l.15,0a.13.13,0,0,1,.1,0,.5.5,0,0,1,.17,0h.27a.2.2,0,0,0,.1,0,.3.3,0,0,1,.15.05.2.2,0,0,1,.1,0c.07.05.1.08.15.08a.23.23,0,0,0,.09.07s.08.05.1.08a.3.3,0,0,1,.1.09.44.44,0,0,1,.08.1l.09.1,0,0s0,.05,0,.07a.24.24,0,0,1,.05.13s0,.1,0,.12a.68.68,0,0,0,0,.12.22.22,0,0,0,.05.18Z" style="fill:#ebebeb"></path><path d="M344.86,255.66a10.55,10.55,0,0,1,1.67-5.89,5.19,5.19,0,0,1,9.14,0,11.34,11.34,0,0,1,0,11.78,5.19,5.19,0,0,1-9.14,0A10.62,10.62,0,0,1,344.86,255.66Zm9.73,0a8.2,8.2,0,0,0-1.18-4.39,2.89,2.89,0,0,0-2.3-1.5,3,3,0,0,0-2.34,1.5,8.2,8.2,0,0,0-1.18,4.39,8.07,8.07,0,0,0,1.18,4.36,3,3,0,0,0,2.34,1.53,2.91,2.91,0,0,0,2.3-1.53A8.07,8.07,0,0,0,354.59,255.66Z" style="fill:#ebebeb"></path><path d="M367.35,248.39v14.54a1.37,1.37,0,0,1-1.37,1.35,1.33,1.33,0,0,1-1.36-1.35V250.81l-1,.56a1.2,1.2,0,0,1-.69.2,1.38,1.38,0,0,1-.71-2.54l3-1.8s.07,0,.1,0,.07-.05.12-.07l.15,0s.07,0,.1,0a.5.5,0,0,1,.17,0h.27a.2.2,0,0,0,.1,0,.33.33,0,0,1,.15.05.2.2,0,0,1,.1,0c.07.05.1.08.14.08a.43.43,0,0,0,.1.07s.08.05.1.08a.3.3,0,0,1,.1.09.26.26,0,0,1,.07.1l.1.1,0,0s0,.05,0,.07a.24.24,0,0,1,.05.13s0,.1,0,.12a.68.68,0,0,0,0,.12.26.26,0,0,0,0,.18Z" style="fill:#ebebeb"></path><path d="M375.76,333.74v14.54a1.37,1.37,0,0,1-1.38,1.35,1.33,1.33,0,0,1-1.35-1.35V336.15l-1,.57a1.22,1.22,0,0,1-.69.2,1.33,1.33,0,0,1-1.16-.69,1.31,1.31,0,0,1,.45-1.85l3-1.8s.07,0,.1-.05.07,0,.12-.07l.15,0a.15.15,0,0,1,.09,0,.38.38,0,0,1,.18,0h.27s.07,0,.1,0a.2.2,0,0,1,.14,0s.08,0,.1,0,.1.08.15.08l.1.07.1.07c.05,0,.07.08.1.1a.43.43,0,0,1,.07.1l.1.1,0,.05s0,.05,0,.07.05.08.05.13,0,.09.05.12a1,1,0,0,0,0,.12c0,.08,0,.12.05.17Z" style="fill:#ebebeb"></path><path d="M384,333.74v14.54a1.37,1.37,0,0,1-1.38,1.35,1.33,1.33,0,0,1-1.36-1.35V336.15l-1,.57a1.24,1.24,0,0,1-.69.2,1.38,1.38,0,0,1-.72-2.54l3-1.8s.08,0,.1-.05.07,0,.12-.07l.15,0a.2.2,0,0,1,.1,0,.34.34,0,0,1,.17,0h.27a.14.14,0,0,0,.1,0,.23.23,0,0,1,.15,0,.18.18,0,0,1,.1,0c.07,0,.1.08.15.08l.1.07.09.07a.46.46,0,0,1,.1.1.44.44,0,0,1,.08.1l.1.1,0,.05s0,.05,0,.07a.33.33,0,0,1,0,.13s0,.09.05.12a.68.68,0,0,0,0,.12c0,.08,0,.12,0,.17Z" style="fill:#ebebeb"></path><path d="M387.15,341a10.52,10.52,0,0,1,1.67-5.89,5.18,5.18,0,0,1,9.14,0,11.34,11.34,0,0,1,0,11.78,5.19,5.19,0,0,1-9.14,0A10.62,10.62,0,0,1,387.15,341Zm9.73,0a8.18,8.18,0,0,0-1.18-4.39,2.87,2.87,0,0,0-2.29-1.5,3,3,0,0,0-2.35,1.5,8.27,8.27,0,0,0-1.18,4.39,8.18,8.18,0,0,0,1.18,4.36,3,3,0,0,0,2.35,1.53,2.91,2.91,0,0,0,2.29-1.53A8.09,8.09,0,0,0,396.88,341Z" style="fill:#ebebeb"></path><path d="M409.65,333.74v14.54a1.37,1.37,0,0,1-1.38,1.35,1.33,1.33,0,0,1-1.36-1.35V336.15l-1,.57a1.24,1.24,0,0,1-.69.2,1.38,1.38,0,0,1-.72-2.54l3-1.8s.08,0,.1-.05.07,0,.12-.07l.15,0a.2.2,0,0,1,.1,0,.34.34,0,0,1,.17,0h.27a.14.14,0,0,0,.1,0,.23.23,0,0,1,.15,0,.2.2,0,0,1,.1,0c.07,0,.1.08.15.08l.1.07.09.07a.46.46,0,0,1,.1.1.44.44,0,0,1,.08.1l.09.1,0,.05s0,.05,0,.07a.24.24,0,0,1,0,.13s0,.09.05.12a.68.68,0,0,0,0,.12c0,.08,0,.12,0,.17Z" style="fill:#ebebeb"></path><path d="M420.88,248.39v14.54a1.37,1.37,0,0,1-1.38,1.35,1.33,1.33,0,0,1-1.35-1.35V250.81l-1,.56a1.2,1.2,0,0,1-.69.2,1.38,1.38,0,0,1-.71-2.54l3-1.8s.07,0,.1,0,.07-.05.12-.07l.15,0s.07,0,.1,0a.5.5,0,0,1,.17,0h.27a.2.2,0,0,0,.1,0,.33.33,0,0,1,.15.05.2.2,0,0,1,.1,0c.07.05.1.08.14.08a.43.43,0,0,0,.1.07s.08.05.1.08a.3.3,0,0,1,.1.09.26.26,0,0,1,.07.1l.1.1,0,0s0,.05,0,.07a.24.24,0,0,1,.05.13s0,.1.05.12a1,1,0,0,0,0,.12.22.22,0,0,0,.05.18Z" style="fill:#ebebeb"></path><path d="M429.65,248.39v14.54a1.37,1.37,0,0,1-1.38,1.35,1.33,1.33,0,0,1-1.35-1.35V250.81l-1,.56a1.22,1.22,0,0,1-.69.2,1.33,1.33,0,0,1-1.16-.69,1.31,1.31,0,0,1,.45-1.85l3-1.8s.07,0,.1,0,.07-.05.12-.07l.15,0s.07,0,.09,0a.55.55,0,0,1,.18,0h.27s.07,0,.1,0a.26.26,0,0,1,.14.05s.08,0,.1,0,.1.08.15.08a.43.43,0,0,0,.1.07l.1.08s.07.07.1.09a.43.43,0,0,1,.07.1.94.94,0,0,0,.1.1l0,0s0,.05,0,.07,0,.08,0,.13,0,.1.05.12a1,1,0,0,0,0,.12.22.22,0,0,0,0,.18Z" style="fill:#ebebeb"></path><path d="M438.42,248.39v14.54a1.37,1.37,0,0,1-1.38,1.35,1.34,1.34,0,0,1-1.36-1.35V250.81l-1,.56a1.22,1.22,0,0,1-.69.2,1.33,1.33,0,0,1-1.16-.69,1.31,1.31,0,0,1,.44-1.85l3-1.8s.08,0,.1,0,.08-.05.13-.07l.14,0a.14.14,0,0,1,.1,0,.52.52,0,0,1,.17,0h.28a.15.15,0,0,0,.09,0,.3.3,0,0,1,.15.05s.08,0,.1,0,.1.08.15.08a.29.29,0,0,0,.1.07s.07.05.1.08.07.07.09.09a.44.44,0,0,1,.08.1.47.47,0,0,0,.1.1l0,0s0,.05,0,.07.05.08.05.13,0,.1,0,.12a.68.68,0,0,0,0,.12.22.22,0,0,0,.05.18Z" style="fill:#ebebeb"></path><rect x="68.27" y="74.58" width="29.15" height="12.32" transform="translate(165.68 161.48) rotate(180)" style="fill:#ebebeb"></rect><rect x="84.53" y="59.05" width="29.15" height="12.32" transform="translate(198.2 130.41) rotate(180)" style="fill:#ebebeb"></rect><path d="M52,59.05l14.46-.28,7.32-.11c2.45,0,4.91,0,7.37-.06h.44v.45l.06,12.32v.5h-.5L66.58,71.8c-4.86,0-9.71-.11-14.57-.16h-.28v-.27c0-2.09.09-4.17.14-6.22Zm0,0,.14,6.22c0,2,.11,4.08.13,6.1L52,71.09c4.86,0,9.71-.16,14.57-.16l14.58-.06-.5.5,0-12.32.45.44c-2.41,0-4.81,0-7.22-.05l-7.24-.11Z" style="fill:#ebebeb"></path><path d="M378,68.42l14.46-.28,7.33-.11c2.45,0,4.91,0,7.36,0h.45v.45l.05,12.32v.5h-.5l-14.57-.06c-4.86,0-9.72-.12-14.58-.17h-.27v-.27c0-2.09.09-4.16.13-6.22Zm0,0,.15,6.22c0,2,.11,4.08.13,6.1l-.28-.27c4.86-.06,9.72-.16,14.58-.17l14.57-.06-.5.5.06-12.32.44.45c-2.4,0-4.8,0-7.21-.06l-7.25-.11Z" style="fill:#ebebeb"></path><rect x="52.01" y="308.39" width="29.15" height="12.32" transform="translate(133.16 629.11) rotate(180)" style="fill:#ebebeb"></rect><rect x="418.84" y="313.87" width="29.15" height="12.32" transform="translate(866.84 640.05) rotate(180)" style="fill:#ebebeb"></rect><path d="M402.58,298.33l14.46-.27,7.33-.12c2.45,0,4.91,0,7.36-.05h.45v.45l.05,12.32v.5h-.5l-14.57-.06c-4.86,0-9.72-.11-14.58-.17h-.27v-.27c0-2.09.09-4.16.13-6.22Zm0,0,.15,6.22c0,2.05.11,4.08.13,6.1l-.28-.27c4.86-.05,9.72-.16,14.58-.17l14.57-.06-.5.5.06-12.32.44.45c-2.4,0-4.8,0-7.21-.06l-7.25-.11Z" style="fill:#ebebeb"></path><rect x="256.04" y="105.03" width="29.15" height="12.32" transform="translate(541.22 222.38) rotate(180)" style="fill:#ebebeb"></rect><path d="M239.77,132.88l14.69-.28,7.25-.11c2.41-.05,4.81,0,7.21-.05l-.44.44-.06-12.32.5.5L254.35,121c-4.86,0-9.72-.11-14.57-.16l.27-.28c0,2-.09,4-.13,6.1Zm0,0-.14-6.1c0-2-.11-4.13-.13-6.22v-.27h.28c4.85-.05,9.71-.16,14.57-.16l14.57-.07h.51v.5l-.05,12.32v.45h-.45c-2.45,0-4.91,0-7.36-.06l-7.33-.11Z" style="fill:#ebebeb"></path><path d="M226.35,367l14.69-.28,7.25-.11c2.41,0,4.8,0,7.21-.05l-.45.44L255,354.65l.5.5-14.58-.07c-4.85,0-9.71-.11-14.57-.16l.27-.27c0,2-.08,4.05-.13,6.1Zm0,0-.14-6.1c-.05-2.05-.11-4.13-.13-6.21v-.27h.28c4.86-.05,9.72-.16,14.57-.16l14.58-.06h.5v.51L255.94,367v.45h-.44c-2.46,0-4.92,0-7.36-.06l-7.33-.11Z" style="fill:#ebebeb"></path><rect x="166.6" y="74.67" width="143.33" height="96.58" style="fill:#fff"></rect><path d="M310.42,171.75H166.1V74.17H310.42Zm-143.32-1H309.42V75.17H167.1Z" style="fill:#ebebeb"></path><path d="M180.45,82a3.31,3.31,0,1,1-3.3-3.3A3.31,3.31,0,0,1,180.45,82Z" style="fill:#37474f"></path><path d="M193.92,82a3.3,3.3,0,1,1-3.3-3.3A3.3,3.3,0,0,1,193.92,82Z" style="fill:#ebebeb"></path><path d="M207.4,82a3.3,3.3,0,1,1-3.3-3.3A3.31,3.31,0,0,1,207.4,82Z" style="fill:#FF725E"></path><rect x="166.6" y="88.72" width="143.33" height="1" style="fill:#ebebeb"></rect></g><g id="freepik--Table--inject-702"><polygon points="41.54 441.28 93.66 441.03 145.77 440.94 250 440.78 354.23 440.94 406.34 441.03 458.46 441.28 406.34 441.52 354.23 441.61 250 441.77 145.77 441.61 93.66 441.52 41.54 441.28" style="fill:#263238"></polygon></g><g id="freepik--Screens--inject-702"><rect x="249.67" y="53.91" width="207.55" height="151.22" style="fill:#263238"></rect><rect x="249.67" y="53.91" width="207.55" height="13.32" style="fill:#FF725E"></rect><path d="M262.17,60.66a3.36,3.36,0,1,1-3.35-3.35A3.35,3.35,0,0,1,262.17,60.66Z" style="fill:#a6a6a6"></path><path d="M275.86,60.66a3.36,3.36,0,1,1-3.36-3.35A3.35,3.35,0,0,1,275.86,60.66Z" style="fill:#455a64"></path><path d="M289.55,60.66a3.36,3.36,0,1,1-3.36-3.35A3.36,3.36,0,0,1,289.55,60.66Z" style="fill:#fff"></path><rect x="263.95" y="93.72" width="7.12" height="2.6" style="fill:#455a64"></rect><rect x="276.27" y="93.72" width="82.89" height="2.6" style="fill:#455a64"></rect><rect x="363.53" y="93.72" width="13.53" height="2.6" style="fill:#FF725E"></rect><rect x="385.17" y="128.53" width="13.53" height="2.6" style="fill:#455a64"></rect><rect x="379.99" y="93.72" width="45.6" height="2.6" style="fill:#a6a6a6"></rect><rect x="271.08" y="100.68" width="7.12" height="2.6" style="fill:#455a64"></rect><rect x="283.21" y="100.68" width="53.61" height="2.6" style="fill:#a6a6a6"></rect><rect x="361.68" y="128.53" width="20.28" height="2.6" style="fill:#a6a6a6"></rect><rect x="276.27" y="121.57" width="51.2" height="2.6" style="fill:#a6a6a6"></rect><rect x="283.21" y="107.64" width="35.92" height="2.6" style="fill:#FF725E"></rect><rect x="372.57" y="114.61" width="35.92" height="2.6" style="fill:#a6a6a6"></rect><rect x="323.11" y="107.64" width="58.56" height="2.6" style="fill:#a6a6a6"></rect><rect x="276.27" y="128.53" width="80.78" height="2.6" style="fill:#FF725E"></rect><rect x="378.48" y="100.68" width="59.33" height="2.6" style="fill:#FF725E"></rect><rect x="340.18" y="100.68" width="35.36" height="2.6" style="fill:#455a64"></rect><rect x="406.59" y="107.64" width="23.05" height="2.6" style="fill:#455a64"></rect><rect x="271.08" y="107.64" width="7.12" height="2.6" style="fill:#455a64"></rect><rect x="263.95" y="114.61" width="7.12" height="2.6" style="fill:#a6a6a6"></rect><rect x="276.27" y="114.61" width="42.09" height="2.6" style="fill:#455a64"></rect><rect x="283.21" y="135.49" width="42.09" height="2.6" style="fill:#455a64"></rect><rect x="362.88" y="142.45" width="54.21" height="2.6" style="fill:#FF725E"></rect><rect x="328.71" y="135.49" width="43.41" height="2.6" style="fill:#FF725E"></rect><rect x="321.27" y="142.45" width="37.94" height="2.6" style="fill:#455a64"></rect><rect x="283.21" y="142.45" width="12.19" height="2.6" style="fill:#a6a6a6"></rect><rect x="330.36" y="121.57" width="46.69" height="2.6" style="fill:#455a64"></rect><rect x="379.99" y="121.57" width="51.16" height="2.6" style="fill:#FF725E"></rect><rect x="322.63" y="114.61" width="46.63" height="2.6" style="fill:#FF725E"></rect><rect x="263.95" y="121.57" width="7.12" height="2.6" style="fill:#455a64"></rect><rect x="263.95" y="128.53" width="7.12" height="2.6" style="fill:#455a64"></rect><rect x="271.08" y="135.49" width="7.12" height="2.6" style="fill:#a6a6a6"></rect><rect x="271.08" y="142.45" width="7.12" height="2.6" style="fill:#455a64"></rect><rect x="263.95" y="148.28" width="7.12" height="2.6" style="fill:#455a64"></rect><rect x="276.27" y="148.28" width="83.5" height="2.6" style="fill:#455a64"></rect><rect x="271.08" y="155.24" width="7.12" height="2.6" style="fill:#455a64"></rect><rect x="283.21" y="155.24" width="53.61" height="2.6" style="fill:#a6a6a6"></rect><rect x="276.27" y="176.13" width="51.2" height="2.6" style="fill:#a6a6a6"></rect><rect x="283.21" y="162.2" width="35.92" height="2.6" style="fill:#FF725E"></rect><rect x="323.11" y="162.2" width="58.56" height="2.6" style="fill:#a6a6a6"></rect><rect x="276.27" y="183.09" width="80.78" height="2.6" style="fill:#FF725E"></rect><rect x="378.48" y="155.24" width="59.33" height="2.6" style="fill:#FF725E"></rect><rect x="340.18" y="155.24" width="35.36" height="2.6" style="fill:#455a64"></rect><rect x="406.59" y="162.2" width="23.05" height="2.6" style="fill:#455a64"></rect><rect x="271.08" y="162.2" width="7.12" height="2.6" style="fill:#455a64"></rect><rect x="263.95" y="169.17" width="7.12" height="2.6" style="fill:#a6a6a6"></rect><rect x="276.27" y="169.17" width="42.09" height="2.6" style="fill:#455a64"></rect><rect x="330.36" y="176.13" width="46.69" height="2.6" style="fill:#455a64"></rect><rect x="322.63" y="169.17" width="46.63" height="2.6" style="fill:#FF725E"></rect><rect x="263.95" y="176.13" width="7.12" height="2.6" style="fill:#455a64"></rect><path d="M268.35,86.87a.61.61,0,0,1,0,.88.6.6,0,0,1-.43.18.66.66,0,0,1-.45-.18L264.73,85s0,0-.05,0l0,0a.26.26,0,0,1,0-.08.05.05,0,0,1,0,0s0,0,0-.06,0,0,0,0v-.07s0,0,0-.06,0,0,0,0v-.07s0,0,0,0,0,0,0-.08,0,0,0,0a.73.73,0,0,1,0-.09,0,0,0,0,1,0,0,.19.19,0,0,1,.06-.07l2.74-2.78a.63.63,0,0,1,.88,0,.61.61,0,0,1,0,.88L266,84.53Z" style="fill:#FF725E"></path><path d="M270.84,87.18l2.4-5.7a.53.53,0,1,1,1,.42l-2.39,5.7a.54.54,0,0,1-.5.33.41.41,0,0,1-.19,0A.54.54,0,0,1,270.84,87.18Z" style="fill:#FF725E"></path><path d="M279,84.89a0,0,0,0,1,0,0s0,0-.07.06l-2.74,2.79a.64.64,0,0,1-.44.18.62.62,0,0,1-.44-.18.61.61,0,0,1,0-.88l2.31-2.34-2.31-2.33a.61.61,0,0,1,0-.88.63.63,0,0,1,.88,0l2.74,2.78.07.07s0,0,0,0a.9.9,0,0,1,.05.09s0,0,0,0a.47.47,0,0,0,0,.09s0,0,0,0v.07s0,0,0,0,0,0,0,0v.08s0,0,0,0a.92.92,0,0,0,0,.09s0,0,0,0Z" style="fill:#FF725E"></path><rect x="42.78" y="123.2" width="177.55" height="131.22" style="fill:#263238"></rect><rect x="42.78" y="123.2" width="177.55" height="13.32" style="fill:#FF725E"></rect><path d="M55.29,130a3.36,3.36,0,1,1-3.36-3.35A3.36,3.36,0,0,1,55.29,130Z" style="fill:#a6a6a6"></path><path d="M69,130a3.35,3.35,0,1,1-3.35-3.35A3.35,3.35,0,0,1,69,130Z" style="fill:#455a64"></path><path d="M82.66,130a3.35,3.35,0,1,1-3.35-3.35A3.35,3.35,0,0,1,82.66,130Z" style="fill:#fff"></path><rect x="57.07" y="163.02" width="7.12" height="2.6" style="fill:#455a64"></rect><rect x="69.38" y="163.02" width="62.89" height="2.6" style="fill:#455a64"></rect><rect x="136.64" y="163.02" width="13.53" height="2.6" style="fill:#FF725E"></rect><rect x="178.29" y="197.83" width="13.53" height="2.6" style="fill:#455a64"></rect><rect x="153.11" y="163.02" width="45.6" height="2.6" style="fill:#a6a6a6"></rect><rect x="64.19" y="169.98" width="7.12" height="2.6" style="fill:#455a64"></rect><rect x="76.32" y="169.98" width="53.61" height="2.6" style="fill:#a6a6a6"></rect><rect x="154.8" y="197.83" width="20.28" height="2.6" style="fill:#a6a6a6"></rect><rect x="69.38" y="190.86" width="51.2" height="2.6" style="fill:#a6a6a6"></rect><rect x="76.32" y="176.94" width="35.92" height="2.6" style="fill:#FF725E"></rect><rect x="165.69" y="183.9" width="35.92" height="2.6" style="fill:#a6a6a6"></rect><rect x="116.23" y="176.94" width="58.56" height="2.6" style="fill:#a6a6a6"></rect><rect x="69.38" y="197.83" width="80.78" height="2.6" style="fill:#FF725E"></rect><rect x="133.3" y="169.98" width="35.36" height="2.6" style="fill:#455a64"></rect><rect x="179.46" y="176.94" width="23.05" height="2.6" style="fill:#455a64"></rect><rect x="64.19" y="176.94" width="7.12" height="2.6" style="fill:#455a64"></rect><rect x="57.07" y="183.9" width="7.12" height="2.6" style="fill:#a6a6a6"></rect><rect x="69.38" y="183.9" width="42.09" height="2.6" style="fill:#455a64"></rect><rect x="76.32" y="204.79" width="42.09" height="2.6" style="fill:#455a64"></rect><rect x="156" y="211.75" width="39.75" height="2.6" style="fill:#FF725E"></rect><rect x="121.83" y="204.79" width="43.41" height="2.6" style="fill:#FF725E"></rect><rect x="114.38" y="211.75" width="37.94" height="2.6" style="fill:#455a64"></rect><rect x="76.32" y="211.75" width="12.19" height="2.6" style="fill:#a6a6a6"></rect><rect x="123.48" y="190.86" width="46.69" height="2.6" style="fill:#455a64"></rect><rect x="173.11" y="190.86" width="18.71" height="2.6" style="fill:#FF725E"></rect><rect x="115.75" y="183.9" width="46.63" height="2.6" style="fill:#FF725E"></rect><rect x="57.07" y="190.86" width="7.12" height="2.6" style="fill:#455a64"></rect><rect x="57.07" y="197.83" width="7.12" height="2.6" style="fill:#455a64"></rect><rect x="64.19" y="204.79" width="7.12" height="2.6" style="fill:#a6a6a6"></rect><rect x="64.19" y="211.75" width="7.12" height="2.6" style="fill:#455a64"></rect><rect x="57.07" y="217.58" width="7.12" height="2.6" style="fill:#455a64"></rect><rect x="69.38" y="217.58" width="83.5" height="2.6" style="fill:#455a64"></rect><rect x="64.19" y="224.54" width="7.12" height="2.6" style="fill:#455a64"></rect><rect x="76.32" y="224.54" width="53.61" height="2.6" style="fill:#a6a6a6"></rect><rect x="76.32" y="231.5" width="35.92" height="2.6" style="fill:#FF725E"></rect><rect x="116.23" y="231.5" width="58.56" height="2.6" style="fill:#a6a6a6"></rect><rect x="133.3" y="224.54" width="35.36" height="2.6" style="fill:#455a64"></rect><rect x="64.19" y="231.5" width="7.12" height="2.6" style="fill:#455a64"></rect><path d="M61.47,156.17a.61.61,0,0,1,0,.88.6.6,0,0,1-.43.17.63.63,0,0,1-.45-.17l-2.75-2.79s0,0,0-.06l0,0a.36.36,0,0,1,0-.07.05.05,0,0,1,0,0s0,0,0-.06,0,0,0,0v-.07s0,0,0-.06,0,0,0-.05v-.06s0,0,0,0,0-.05,0-.08v0a.73.73,0,0,1,.05-.09,0,0,0,0,1,0,0,.15.15,0,0,1,.05-.07l2.75-2.78a.63.63,0,0,1,.88,0,.61.61,0,0,1,0,.88l-2.32,2.33Z" style="fill:#FF725E"></path><path d="M64,156.48l2.39-5.7a.55.55,0,0,1,.72-.28.52.52,0,0,1,.27.69L65,156.9a.54.54,0,0,1-.5.32.69.69,0,0,1-.2,0A.53.53,0,0,1,64,156.48Z" style="fill:#FF725E"></path><path d="M72.07,154.18h0a.46.46,0,0,1-.07.07l-2.74,2.79a.63.63,0,0,1-.44.17.6.6,0,0,1-.44-.17.61.61,0,0,1,0-.88l2.31-2.34-2.31-2.33a.61.61,0,0,1,0-.88.63.63,0,0,1,.88,0L72,153.4a.46.46,0,0,1,.07.07s0,0,0,0a.9.9,0,0,1,.05.09v0a.47.47,0,0,0,0,.09s0,0,0,0v.06s0,0,0,.05V154a.92.92,0,0,0,0,.09s0,0,0,0Z" style="fill:#FF725E"></path></g><g id="freepik--Padlock--inject-702"><path d="M273,237.18h-7.38V221.24a21.64,21.64,0,0,0-43.27,0V260H215v-38.8a29,29,0,0,1,58,0Z" style="fill:#c7c7c7"></path><rect x="207.72" y="248.8" width="72.55" height="56.75" style="fill:#FF725E"></rect><rect x="207.72" y="248.8" width="36.28" height="56.75" style="opacity:0.1"></rect><path d="M247.07,273.45l3,14.41H237.22l3-14.41a6.44,6.44,0,1,1,6.82,0Z" style="fill:#263238"></path><path d="M278.42,234.86a13.39,13.39,0,0,1,0-7.25,13.39,13.39,0,0,1,0,7.25Z" style="fill:#263238"></path><path d="M283.09,246.15a11.83,11.83,0,0,1,2.92,2.21,12.09,12.09,0,0,1,2.21,2.91,11.47,11.47,0,0,1-2.92-2.21A12.09,12.09,0,0,1,283.09,246.15Z" style="fill:#263238"></path><path d="M285,241.47a12.21,12.21,0,0,1,3.62-.5,12,12,0,0,1,3.63.5,11.66,11.66,0,0,1-3.63.5A11.89,11.89,0,0,1,285,241.47Z" style="fill:#263238"></path><path d="M283.09,236.8a12.14,12.14,0,0,1,2.21-2.92,11.7,11.7,0,0,1,2.92-2.21,13.36,13.36,0,0,1-5.13,5.13Z" style="fill:#263238"></path></g><g id="freepik--Character--inject-702"><path d="M138.08,304.87c9.61,41.86,29.51,92,38,100.18,10.74,10.3,81.83,29.19,85.37,29.57,8.79.89,31.22-58.44,21.87-59.79-14.23-2.06-70.83-8.75-73.93-11.94s-25.06-30.87-47.52-62C146.38,279.39,132.11,278.9,138.08,304.87Z" style="fill: rgb(247, 169, 160);"></path><path d="M252.92,431.15c1,.49,14.64,7.37,23.09,9.82,6.31,1.83,24.61,6.6,27.31-.14,1.85-4.6-8.58-8.67-15.89-11.72-3.85-1.6-8.6-5.64-7.46-8.11,2-4.33,11.9,0,18.42,3.81,12.61,7.32,29.4,20.51,37.11,14.11,2.9-2.42-.48-6.82-5.42-11.14,8,5,16.58,9.16,19.92,6.6,1.92-1.45,2-3.45.94-5.74,2.48.81,4.67.65,6.19-1,2.61-2.73,1.34-6.76-1.51-10.89a3.14,3.14,0,0,0,2.37-1.56c5.52-8.42-22.13-32.6-31.69-34.87-28.13-6.68-57.78-5.44-57.78-5.44C257.48,383.75,252.9,431.14,252.92,431.15Z" style="fill: rgb(247, 169, 160);"></path><path d="M294.29,405.26a47.61,47.61,0,0,1,18.77,7.22c7.13,4.71,11.86,10.22,17.84,15.77a.16.16,0,0,1-.22.24c-2.85-2.63-14.67-12.55-17.72-14.8a45.49,45.49,0,0,0-18.69-8.32C294.19,405.36,294.22,405.25,294.29,405.26Z" style="fill:#263238"></path><path d="M299.53,393.32c7.4,2,15,4.07,21.84,7.56,7.51,3.83,13.38,10.07,19.16,16.07q5.21,5.42,10.17,11.05c.14.16-.07.41-.22.25q-8.81-9.31-18.15-18.07a60.05,60.05,0,0,0-19.91-12.55c-4.23-1.61-8.57-2.9-12.91-4.18C299.42,393.43,299.45,393.3,299.53,393.32Z" style="fill:#263238"></path><path d="M307.43,382.88c7.19,1.48,13.45,2.74,19.81,6.59,8.42,5.09,16.55,13.68,19.41,16.72,3.15,3.37,6.18,6.83,9.17,10.34.12.15-.13.36-.25.22a238.79,238.79,0,0,0-21.92-21.7,47.38,47.38,0,0,0-12.25-8,84.74,84.74,0,0,0-14-4.15A0,0,0,0,1,307.43,382.88Z" style="fill:#263238"></path><path d="M266.44,367.54,244.58,436.8s-59.19-16.9-70-28.57-30.78-71.9-36.65-101.09,8.89-28.47,22.46-10.07,47.34,63,49.23,64S266.44,367.54,266.44,367.54Z" style="fill:#FF725E"></path><path d="M238.9,406c2.65-8.17,5.36-16.31,7.71-24.58,1.33-4.69,2.69-9.39,4-14.09,0-.18-.25-.29-.32-.11-3,8.09-6,16.21-8.56,24.43S236.44,408,234,416.25c-1.42,4.67-2.69,9.37-3.82,14.13,0,.09.13.15.16.06C233.55,422.44,236.24,414.25,238.9,406Z" style="fill:#263238"></path><path d="M248.46,424.47l-3.89,12.33s-59.19-16.9-70-28.56-30.78-71.9-36.65-101.1c-3.83-19,1.1-25.34,8.75-22.35Z" style="opacity:0.1"></path><path d="M187.5,441.25H45.36s26.12-118.92,55.92-153.92c.66-.81,1.35-1.57,2-2.28a5.63,5.63,0,0,1,.4-.43,32,32,0,0,1,8-6.15c.53-.29,1-.55,1.59-.79,11.48-5.27,23.6-.9,32.34,6.58,2.78,2.38,34.19,43.25,37,58.83,2.4,13.76-6.89,28.54-6.89,28.54Z" style="fill:#FF725E"></path><path d="M153.45,366.3a127.46,127.46,0,0,0-18.72,3.25c-3,.81-6,1.75-9,2.76-1.49.51-3,1-4.49,1.41a20.28,20.28,0,0,1-4.82.95.12.12,0,0,0,0,.23,34.4,34.4,0,0,0,4.65-.13,31.71,31.71,0,0,0,4.42-.88c3.1-.79,6.16-1.72,9.25-2.54,6.23-1.66,12.46-3.32,18.8-4.53C153.82,366.76,153.74,366.27,153.45,366.3Z" style="fill:#263238"></path><path d="M169.1,371.76a138.89,138.89,0,0,0-15.67-.62c-2.61.06-5.21.26-7.81.54q-1.86.19-3.72.45c-1.36.19-2.7.55-4.07.72-.14,0-.14.24,0,.23,1.29-.12,2.61,0,3.9-.07l3.91-.14c2.61-.08,5.21-.14,7.82-.25,5.22-.22,10.42-.39,15.64-.43A.22.22,0,0,0,169.1,371.76Z" style="fill:#263238"></path><path d="M94,298.55C74.11,336.13,43.62,398.94,59.83,410.32,86.47,429,160.69,435.43,177.67,436.2c7.32.34,18.32-48.21,13-54s-83.17-4.33-84.07-9.05c-.51-2.67,4.86-32.26,7.92-62C118.89,268.92,101.19,285,94,298.55Z" style="fill: rgb(247, 169, 160);"></path><path d="M177.69,379.25s22.24-1.83,36.83-2.34c8.15-.29,22.16.47,28.23,3,9.1,3.78,44.72,25.39,39.66,34.14-4.57,7.92-32.82-14.53-32.82-14.53s30.51,20.13,23.24,28.66S237,407.08,237,407.08s30.87,21.39,22,29c-6.71,5.74-34.06-19.62-34.06-19.62s26.41,18.57,19.76,24.78c-7.34,6.86-34.06-15-34.06-15-19.55,12.93-34.15,11.1-44.38,8.55C163.81,434.21,177.69,379.25,177.69,379.25Z" style="fill: rgb(247, 169, 160);"></path><path d="M239.49,391.87c3.67,2.23,7.4,4.47,10.86,7s6.82,5.24,10,8.1c7.86,7,11.68,12.66,11.4,12.33-6.47-7.61-18.71-16.95-22.17-19.5s-6.77-5.27-10.22-7.82A.08.08,0,1,1,239.49,391.87Z" style="fill:#263238"></path><path d="M230,404.18c4.56,3.06,9.2,5.93,13.63,9.19s10.43,8,14.6,11.54c.32.27.06.85-.27.59-4.31-3.37-10.67-7.94-15-11.26s-8.57-6.81-13-9.95C229.89,404.24,230,404.14,230,404.18Z" style="fill:#263238"></path><path d="M220,413.3c7.21,4.31,13.61,9.95,19.76,15.64.31.28,0,.35-.36.08-6.47-5.32-11.51-9.55-19.55-15.47C219.75,413.45,219.88,413.2,220,413.3Z" style="fill:#263238"></path><path d="M174.51,378.79c10.14-.83,40-3.14,50.13-3.11,9,0,16.55,1.39,24.44,5.81C266,391,277.34,402.7,280.2,406.24c1.73,2.14,4.28,5.56,2.39,8.23-2.31,3.24-11.89,1-22.43-7.23-.38-.3-.17-.52.22-.25,14.69,10.2,20.12,8.49,21.42,6.46.84-1.32-.22-3.4-1.18-5a32.35,32.35,0,0,0-5.4-6.16,137.69,137.69,0,0,0-22.34-16.82,54,54,0,0,0-28.83-8.43c-10.43-.07-39.12,2.34-49.55,2.12C174.27,379.17,174.29,378.81,174.51,378.79Z" style="fill:#263238"></path><path d="M274.15,423.59c-.78-2.74-3-5.11-4.71-7.28a51.32,51.32,0,0,0-7.17-7.49c-.12-.1-.29.05-.18.17a78.57,78.57,0,0,1,6.38,7.25,44.3,44.3,0,0,1,2.92,4.37c.85,1.46,1.83,3.15,1.59,4.9-.48,3.35-4.67,3.58-7.22,2.88a28.5,28.5,0,0,1-4.78-1.9,46.56,46.56,0,0,1-6-3.85c-.16-.13-.55,0-.38.09,3.95,3.25,11.5,10,17,6.93A5.16,5.16,0,0,0,274.15,423.59Z" style="fill:#263238"></path><path d="M260.87,431.21c-.65-2.54-3.86-7.36-8-10.35-.12-.08-.28.05-.17.16a34.93,34.93,0,0,1,5.87,7.12c.74,1.37,1.79,3.49,1.56,5.1-.43,3.09-4.31,3.31-6.66,2.66a26.65,26.65,0,0,1-4.42-1.64c-1.47-.71-8.71-5.18-10-6.18-.16-.12-.51,0-.36.08,3.65,3,13,10,19.2,8.82C260.37,436.51,261.55,433.86,260.87,431.21Z" style="fill:#263238"></path><path d="M177.79,376.35l-22.14,62.47S61,424.79,54.23,407.49s17.45-72.21,37.08-106.66c18.91-33.18,26.51-17.85,23.76,9.05-2.38,23.3-9,61.2-7.64,63S177.79,376.35,177.79,376.35Z" style="fill:#FF725E"></path><path d="M144.24,429.63c.78-1.78,1.52-3.58,2.26-5.38q2.25-5.47,4.46-11c2.93-7.27,5.65-14.62,8.29-22,1.5-4.19,3.15-8.35,4.46-12.6a.17.17,0,0,0-.31-.12c-1.69,3.56-3.1,7.26-4.63,10.89s-3.1,7.26-4.57,10.92c-2.91,7.28-5.69,14.6-8.4,22-.76,2.06-1.6,4.11-2.27,6.21-.34,1.07-.76,2.12-1.09,3.2s-.58,2.19-.94,3.26a.1.1,0,0,0,.18.07C142.5,433.24,143.44,431.47,144.24,429.63Z" style="fill:#263238"></path><path d="M157.4,434.53l-1.57,4.36-.05.14-.15,0c-8.94-1-17.84-2.34-26.71-3.9s-17.68-3.37-26.43-5.5a234.91,234.91,0,0,1-25.92-7.7,95.6,95.6,0,0,1-12.38-5.5,42.12,42.12,0,0,1-5.68-3.73,13.52,13.52,0,0,1-4.28-5.19,14.34,14.34,0,0,0,4.58,4.78,41.58,41.58,0,0,0,5.81,3.3,112.3,112.3,0,0,0,12.46,4.91c8.49,2.81,17.16,5.1,25.88,7.2s17.48,4,26.28,5.79,17.6,3.53,26.44,5.17l-.2.11Z" style="fill:#263238"></path><path d="M176.92,378.79l.77-2.48.09.15q-15.69.27-31.37,0c-10.46-.23-20.92-.49-31.39-1.31-1.31-.11-2.62-.23-3.93-.39-.66-.08-1.32-.16-2-.28-.34-.06-.68-.12-1-.21l-.56-.17a3.67,3.67,0,0,1-.36-.17,1.25,1.25,0,0,1-.26-.17l-.16-.17a1.23,1.23,0,0,1-.19-.33,1.88,1.88,0,0,1-.09-.46c0-.12,0-.22,0-.31s0-.37,0-.54l0-1,.16-2c.11-1.31.25-2.62.39-3.92.57-5.21,1.27-10.39,2-15.58q2.16-15.54,4.77-31l-3.34,31.19c-.56,5.19-1.12,10.39-1.62,15.58-.12,1.3-.24,2.6-.33,3.89l-.12,1.93,0,.94v.44c0,.07,0,.14,0,.18s0,.05,0,0a.76.76,0,0,0-.13-.23.3.3,0,0,0-.08-.08l-.05,0,.09,0,.37.11.89.17c.62.11,1.25.19,1.89.26,1.28.14,2.58.26,3.87.36,10.39.73,20.84,1.12,31.28,1.57s20.88.93,31.33,1.48h.15l-.05.14Z" style="fill:#263238"></path><path d="M115.29,321.29a16.24,16.24,0,0,1-.86,4.32,15.76,15.76,0,0,1-.86,2,6.26,6.26,0,0,1-1.31,1.8,20.23,20.23,0,0,0,.77-2l.69-2A37.63,37.63,0,0,1,115.29,321.29Z" style="fill:#263238"></path><path d="M178,288.89c-7.44,6.43-23.17,4-27,8.36s-7.26,11.64-7.26,11.64-1.31-9.74-5-14.72c-2.6-3.46-10.34-11.48-14.63-17.88l0,0c-3.66-4.88-11.19-13.07-12.31-15.65s12-19.92,23.91-21.56h.05c6.87-1.27,22,0,33.59,3.11,8.74,2.35,12.57,5.85,13.26,7.15C189.15,261.71,185.2,282.69,178,288.89Z" style="fill:#FF725E"></path><g style="opacity:0.2"><path d="M178,288.89c-7.44,6.43-23.17,4-27,8.36s-7.26,11.64-7.26,11.64-1.31-9.74-5-14.72c-2.6-3.46-10.34-11.48-14.63-17.88l0,0c-3.66-4.88-11.19-13.07-12.31-15.65s12-19.92,23.91-21.56h.05c6.87-1.27,22,0,33.59,3.11,8.74,2.35,12.57,5.85,13.26,7.15C189.15,261.71,185.2,282.69,178,288.89Z"></path></g><path d="M121,288.57c.22,2.58,10,19.91,21.54,21,3.75.35,6.15-17.27,6.15-17.27l.56-1.45,7.73-20.38-22.45-19.42-3.27-2.61s-1.75,5.71-3.85,12.85c-.1.33-.2.66-.3,1s-.26.78-.36,1.16c-.33,1.06-.66,2.15-1,3.24-.24.82-.47,1.63-.69,2.51s-.45,1.72-.69,2.6C122.16,280.51,120.87,287.47,121,288.57Z" style="fill: rgb(247, 169, 160);"></path><path d="M125,269.23c8.89,14.68,17.41,19,24.16,21.64l7.73-20.38-22.45-19.42-3.27-2.61S127.15,262.09,125,269.23Z" style="fill:#263238"></path><path d="M185.61,244.83c-5.85,37.8-29.15,38.56-37.3,37.29-7.4-1.15-32.44-6-30.53-44.22s21.34-47.42,38.4-45.68S191.46,207,185.61,244.83Z" style="fill: rgb(247, 169, 160);"></path><path d="M185.61,244.83A73.2,73.2,0,0,1,182,259.26c-8.76,23.55-26.71,23.95-33.66,22.86-6.53-1-26.87-4.94-30.18-32.23a70,70,0,0,1-.35-12c1.91-38.2,21.34-47.43,38.39-45.68S191.46,207,185.61,244.83Z" style="fill: rgb(247, 169, 160);"></path><path d="M180.22,243.39a23.25,23.25,0,0,1-2.64-.17,4.3,4.3,0,0,1-2.65-.69,1.35,1.35,0,0,1-.24-1.64,3.37,3.37,0,0,1,3.18-1.26,4.92,4.92,0,0,1,3.33,1.3A1.45,1.45,0,0,1,180.22,243.39Z" style="fill:#263238"></path><path d="M154.05,235.85a24.77,24.77,0,0,0,2.38,1.15,4.2,4.2,0,0,0,2.65.72,1.35,1.35,0,0,0,1-1.31,3.38,3.38,0,0,0-2.14-2.67,5,5,0,0,0-3.53-.52A1.45,1.45,0,0,0,154.05,235.85Z" style="fill:#263238"></path><path d="M157.16,242.09c0-.1-.22.06-.25.17-.6,2.53-1.72,5.33-4.22,5.55-.08,0-.11.13,0,.14C155.55,248.32,157,244.59,157.16,242.09Z" style="fill:#263238"></path><path d="M155.64,238.85c-4-1.41-6.49,6.61-2.82,7.92S159,240,155.64,238.85Z" style="fill:#263238"></path><path d="M153.93,238.78c-.85.23-1.78.82-2.65.64s-1.49-1.29-1.87-2.3c0-.1-.13-.05-.17,0-.5,1.53-.41,3.3,1.17,4s2.94-.34,3.81-1.76C154.38,239.19,154.27,238.69,153.93,238.78Z" style="fill:#263238"></path><path d="M172.22,246.1c.05-.09.15.17.12.28-.88,2.45-1.48,5.41.5,7,.06,0,0,.17-.07.13C170.16,252.19,171,248.28,172.22,246.1Z" style="fill:#263238"></path><path d="M175.27,244.22c4.08,1,1.81,9.08-2,8.17S171.84,243.4,175.27,244.22Z" style="fill:#263238"></path><path d="M176.8,245.23c.52.61.94,1.56,1.69,1.83s1.77-.39,2.57-1.07c.08-.07.13,0,.1.13-.39,1.56-1.36,3-2.93,2.9s-2-1.71-2-3.36C176.25,245.36,176.59,245,176.8,245.23Z" style="fill:#263238"></path><path d="M150.8,262.32c.21.85.29,1.89,1,2.46a6.84,6.84,0,0,0,2.73.91.09.09,0,0,1,0,.18,3.52,3.52,0,0,1-3.55-.54,2.79,2.79,0,0,1-.53-3C150.57,262.14,150.77,262.2,150.8,262.32Z" style="fill:#263238"></path><path d="M163.37,256.45s-.61,3.88-1.14,5.63c0,.17-6.85-.45-8.34-5.61a.19.19,0,0,1,.33-.17,13.16,13.16,0,0,0,7,4.49c.27-.45.82-6.68,1.1-6.62a16.27,16.27,0,0,1,3.72,2.11c1.5-8,1.71-16.26,3.33-24.25a.25.25,0,0,1,.49,0c.4,8.63-1.13,17.92-2.47,26.27C167.2,259.37,164,257,163.37,256.45Z" style="fill:#263238"></path><path d="M185.61,244.83A73.2,73.2,0,0,1,182,259.26a26,26,0,0,0-3.34-2.25c-9.64-5.44-23.1-7.59-29.46-8.11a126.87,126.87,0,0,0-31,1,70,70,0,0,1-.35-12c1.91-38.2,21.34-47.43,38.39-45.68S191.46,207,185.61,244.83Z" style="opacity:0.1"></path><path d="M171.24,203.53s-.14,5.95-3.2,9.38c-6.29,7.06-15.55,2.05-19.87,4.31-4,2.13-4.76,8.74-8.5,10.95-5.19,3.06-10.12-.13-11.59,2.51s-6,11.13-9.91,11.23-3.16-64.69,43.51-49.15c0,0,7.25-.77,15.83,7.2,9.48,8.8,9,28.44,9,28.44s-.16-.32-1.36-2.21c-1.7-2.67-2-4.78-3.34-6.57-2-2.8-3.69-2.44-5.84-5.22C172.71,210.16,171.24,203.53,171.24,203.53Z" style="fill:#263238"></path><path d="M171.28,200.72a33.4,33.4,0,0,1-.71,7.61,13.8,13.8,0,0,1-3,6.73,10.22,10.22,0,0,1-6.64,2.65c-2.49.17-5-.31-7.73,0a7.71,7.71,0,0,0-3.85,1.46,10.26,10.26,0,0,0-2.44,3.23c-1.2,2.27-2.4,4.51-4.51,5.77a8.49,8.49,0,0,1-7.1.83c-2.38-.68-4.81-2.11-7.44-1.74,2.65-.16,4.83,1.39,7.26,2.3a9.25,9.25,0,0,0,7.75-.58c2.47-1.3,3.8-3.87,5-6A9.22,9.22,0,0,1,150,220a6.47,6.47,0,0,1,3.28-1.16c2.42-.29,5,.14,7.66-.07a13.2,13.2,0,0,0,3.9-.87,8.05,8.05,0,0,0,3.35-2.25,14.4,14.4,0,0,0,2.93-7.25A33.82,33.82,0,0,0,171.28,200.72Z" style="fill:#263238"></path><path d="M171.56,203.13a26.61,26.61,0,0,0,.4,7.17,12.67,12.67,0,0,0,3.23,6.57,17.84,17.84,0,0,0,2.9,2.21,6,6,0,0,1,2.06,2.45,18.25,18.25,0,0,0,1.24,3.38,8,8,0,0,0,2.49,2.61,8.86,8.86,0,0,1-1.95-2.87,18.18,18.18,0,0,1-.89-3.4,6.25,6.25,0,0,0-2.26-3.08,19.22,19.22,0,0,1-2.72-2.14,13.36,13.36,0,0,1-3.15-6A52.55,52.55,0,0,1,171.56,203.13Z" style="fill:#263238"></path><path d="M123.91,238.93s-5.27-13.58-11.24-12-4,19.9,1.62,23.71a6.48,6.48,0,0,0,9.25-1.31Z" style="fill: rgb(247, 169, 160);"></path><path d="M113.37,232.19a.09.09,0,0,0-.08.15c3.9,2.82,5.2,7.39,5.78,11.95-.9-1.92-2.44-3.23-5-2.22-.13.05-.07.26.06.26a4,4,0,0,1,3.92,2.39,18.5,18.5,0,0,1,1.2,3.94c.11.44.86.4.82-.08,0,0,0-.07,0-.11C121.56,243,119.16,234.2,113.37,232.19Z" style="fill:#263238"></path><path d="M191.21,222.12c-2-20.39-18.44-31.36-40-33.11-32.62-2.66-61.58,54.05-62.69,70.47-1.19,17.64,20.21,18.73,22.54,20.93,5.42,5.12,11.33,14.11,17.08,21.86,4.77,6.41,15.35,9.57,15.35,9.57.45-3.06,1.82-1.19,9.5-11,1.94-2.47,4.89-3.7,7.18-5.5,3-2.36,20.86,3.94,25.13-1.19C197.15,280,192.91,240,191.21,222.12ZM177.53,287.4c-7.2,6.7-22.67,5.49-26.54,9.85s-7.26,11.63-7.26,11.63-1.31-9.73-5-14.72c-2.6-3.45-10.34-11.47-14.63-17.87l0,0c-3.66-4.88-11.19-13.08-12.31-15.66s12.53-13.49,21.14-17.91c13-6.66,24.16-4.6,35.71-1.48,8.74,2.35,13.94,6.06,14.06,12.38C182.81,263.38,183.3,282,177.53,287.4Z" style="fill:#FF725E"></path><path d="M111.68,281a31.22,31.22,0,0,1,4.33,3.2,19.41,19.41,0,0,1,1.87,2c.56.71,1.09,1.44,1.61,2.17,2.06,2.93,4,6,5.91,8.95,1,1.48,1.95,3,3,4.43.51.72,1,1.43,1.59,2.09a12.66,12.66,0,0,0,1.88,1.77,29.83,29.83,0,0,0,4.43,2.89,39.45,39.45,0,0,0,4.84,2.25,28.55,28.55,0,0,1-9.79-4.45,13.24,13.24,0,0,1-2.07-1.83c-.61-.7-1.15-1.43-1.68-2.15-1-1.47-2-3-3-4.47-1.94-3-3.8-6.06-5.71-9.06A27.53,27.53,0,0,0,111.68,281Z" style="fill:#263238"></path><path d="M147.76,306.89c.76-1.05,1.52-2.08,2.36-3.05s1.69-1.93,2.59-2.85,1.85-1.78,2.85-2.59a16.17,16.17,0,0,1,3.25-2.11c-.95.87-1.82,1.79-2.72,2.69l-2.67,2.72A60.78,60.78,0,0,1,147.76,306.89Z" style="fill:#263238"></path><path d="M113.08,286.34a8.58,8.58,0,0,1,3,1,6.86,6.86,0,0,1,2.43,2.2,25,25,0,0,0,2.06,2.32A23.73,23.73,0,0,0,123,294a10,10,0,0,1-2.76-1.66A14.13,14.13,0,0,1,118,290a7.69,7.69,0,0,0-2.13-2.16A15.5,15.5,0,0,0,113.08,286.34Z" style="fill:#263238"></path><path d="M113.36,256.32a27.63,27.63,0,0,0-1.32,3.2,30.65,30.65,0,0,0-1,3.27,6,6,0,0,0-.14.81,1.4,1.4,0,0,0,.08.7,6.78,6.78,0,0,0,.77,1.45,9.31,9.31,0,0,0,2.32,2.49,6.72,6.72,0,0,1-2.79-2.14,6.13,6.13,0,0,1-1-1.56,2.14,2.14,0,0,1-.14-1,6.64,6.64,0,0,1,.14-.91,17.12,17.12,0,0,1,1.19-3.33A12.42,12.42,0,0,1,113.36,256.32Z" style="fill:#263238"></path><path d="M178.64,245.42a12.92,12.92,0,0,1,4.79,3.35,28.92,28.92,0,0,1,2,2.19q.47.57.9,1.17a5.27,5.27,0,0,1,.79,1.35,23.64,23.64,0,0,1,1.25,5.78,43.84,43.84,0,0,1,.27,5.84l-1-5.72a32.56,32.56,0,0,0-1.4-5.52,11.14,11.14,0,0,0-1.51-2.31c-.57-.77-1.18-1.52-1.79-2.25a27.83,27.83,0,0,0-2-2.11A10.58,10.58,0,0,0,178.64,245.42Z" style="fill:#263238"></path><path d="M140.42,306.45a1.3,1.3,0,1,1-1.46-1.11A1.29,1.29,0,0,1,140.42,306.45Z" style="opacity:0.2"></path><path d="M138.6,306.93a23.55,23.55,0,0,1,2.07,16.82,25.21,25.21,0,0,0-.76,9.85,45.74,45.74,0,0,0,1.92,7.29,17.09,17.09,0,0,1,.84,8.35c-.15.79,1.05,1.13,1.2.33a16.61,16.61,0,0,0-.39-7.48c-.65-2.44-1.59-4.79-2.1-7.27a23.24,23.24,0,0,1,.44-10.52,23.56,23.56,0,0,0,.22-11.38,26.41,26.41,0,0,0-2.36-6.62c-.39-.71-1.47-.08-1.08.63Z" style="fill:#263238"></path><path d="M144.07,352.56c.14-.83.27-1.66.38-2.5s.2-1.49.27-2.25a8.82,8.82,0,0,0,.06-1.54,1.28,1.28,0,0,0-1.25-1.25,1.26,1.26,0,0,0-1.25,1.25,9.16,9.16,0,0,1-.05,1.48c0,.33-.07.66-.11,1l-.06.48,0,.28c0,.24,0-.33,0,0-.11.81-.23,1.62-.37,2.43a1.29,1.29,0,0,0,.88,1.54,1.27,1.27,0,0,0,1.53-.88Z" style="fill:#455a64"></path><path d="M149.9,305.72a1.3,1.3,0,0,1-1.09,1.47,1.29,1.29,0,1,1,1.09-1.47Z" style="opacity:0.2"></path><path d="M148.08,306.36a114.43,114.43,0,0,0,3.2,14.87c1,3.46,2.71,6.67,3.21,10.29.36,2.61,0,5.18,0,7.79a17.15,17.15,0,0,0,3.16,9.36c.44.67,1.52,0,1.08-.64a15.92,15.92,0,0,1-3-8.61,70.24,70.24,0,0,0,0-7.54c-.42-3.56-1.92-6.66-3-10a85.83,85.83,0,0,1-2.37-9.61c-.41-2.07-.79-4.14-1.12-6.23-.13-.79-1.33-.45-1.21.34Z" style="fill:#263238"></path><path d="M160.64,350.21c-.8-1.33-1.58-2.68-2.26-4.07-.11-.22-.21-.43-.31-.65s.1.23,0,.09a1.12,1.12,0,0,0-.05-.13,1.83,1.83,0,0,1-.08-.25,1.26,1.26,0,0,0-2.42.67,15.75,15.75,0,0,0,1.23,2.63c.45.83.91,1.64,1.38,2.45l.31.52a1.25,1.25,0,1,0,2.16-1.26Z" style="fill:#455a64"></path></g><g id="freepik--Device--inject-702"><rect x="236.9" y="439.09" width="123.19" height="5.53" style="fill:#455a64"></rect><rect x="236.9" y="439.09" width="62" height="5.53" style="fill:#263238"></rect><polygon points="296.6 444.61 416.66 444.61 433.62 363.08 313.56 363.08 296.6 444.61" style="fill:#263238"></polygon><polygon points="302.05 444.61 422.1 444.61 439.06 363.08 319.01 363.08 302.05 444.61" style="fill:#37474f"></polygon><path d="M356.67,405.67a7.06,7.06,0,0,0,7.16,8,9.1,9.1,0,0,0,8.84-8,7.07,7.07,0,0,0-7.16-8A9.1,9.1,0,0,0,356.67,405.67Z" style="fill:#ebebeb"></path><path d="M337.09,377a15,15,0,0,0-4.63-4.84c-1.61-.91-9.2,2-10.45,3.49-1,1.24-1.2,8.93.05,10.17s3.56,1.23,5,1.25c.31.71,1.15,3.32,1.15,3.32l8.13-3s-.83-2.11-1.31-3.15h0C337.11,382.16,338.86,380,337.09,377Zm-9.86,8c-2.77,1.93-5.7-2.35-3.83-4.2C325.78,378.43,330,383.08,327.23,385Zm4.72-.42c-.36.22-.64-.24-.77-.14s-.33.74-.71.63-.55-2.82-.16-2.92C331,382,332.32,384.37,332,384.59Zm1.44-1.84c-3.19-1.09-1.45-6,1.13-5.57C337.85,377.7,336.58,383.84,333.39,382.75Z" style="fill:#fff"></path><path d="M343.15,396.2c-.32,1,1.45,2.77,0,3.06s-2-1.46-2.83-2.23c-1.67-.08-10.15-1.43-11.78-1.78a7.93,7.93,0,0,0-2.83-.4c-.44.14-2.17,1.47-2.87.86-1.73-1.5,1-3.09,1.52-4.14-.41-.84-.86-2-.13-2.71a1.46,1.46,0,0,1,2,.11,2.34,2.34,0,0,1,.58,1.24c.08.53-.07.74.23,1.16s1,.53,1.56.69c1.62.45,10.18,1.83,11.82,2.16,1-.74,2.5-1.93,3.71-1.09S343.46,395.23,343.15,396.2Z" style="fill:#fff"></path><path d="M340.81,387.46c.62.79,3.11.32,2.56,1.68s-2.3.82-3.43,1.13c-1,1.34-6.81,7.66-8,8.83-.93.91-1.75,1.59-1.9,2.12s0,2.62-.88,2.87c-2.2.61-2-2.56-2.6-3.56-.93-.12-2.14-.38-2.33-1.39a1.45,1.45,0,0,1,1.19-1.58,2.24,2.24,0,0,1,1.35.2c.49.23.58.47,1.1.45s1-.56,1.44-.92c1.27-1.1,7.16-7.47,8.34-8.64-.08-1.23-.22-3.15,1.15-3.7S340.18,386.66,340.81,387.46Z" style="fill:#fff"></path></g></svg>